PathFileType	4	(X/Y/Z)	65_2_40_p0_0-197.trc
DataRate	CameraRate	NumFrames	NumMarkers	Units	OrigDataRate	OrigDataStartFrame	OrigNumFrames
50.0	50.0	6	27	m	50.0	173	198
Frame#	Time	RHip			RKnee			RAnkle			RBigToe			RSmallToe			RHeel			LHip			LKnee			LAnkle			LBigToe			LSmallToe			LHeel			Neck			Head			Nose			RShoulder			RElbow			RWrist			RThumb			RIndex			RPinky			LShoulder			LElbow			LWrist			LThumb			LIndex			LPinky			
		X1	Y1	Z1	X2	Y2	Z2	X3	Y3	Z3	X4	Y4	Z4	X5	Y5	Z5	X6	Y6	Z6	X7	Y7	Z7	X8	Y8	Z8	X9	Y9	Z9	X10	Y10	Z10	X11	Y11	Z11	X12	Y12	Z12	X13	Y13	Z13	X14	Y14	Z14	X15	Y15	Z15	X16	Y16	Z16	X17	Y17	Z17	X18	Y18	Z18	X19	Y19	Z19	X20	Y20	Z20	X21	Y21	Z21	X22	Y22	Z22	X23	Y23	Z23	X24	Y24	Z24	X25	Y25	Z25	X26	Y26	Z26	X27	Y27	Z27	
173	3.46	0.38032722719219564	0.6222497109086729	0.36396614366306673	0.3720845544526666	0.8766086410456603	0.7573521986380982	0.3192176282597473	1.0236018271362575	1.1513624704025571	0.2924201339114247	0.9090196260589858	1.2359223447212704	0.3713669006776738	0.939675324626492	1.2438078031152995	0.2764455229503444	1.0891454334461368	1.1921335243990803	0.15396175273297452	0.6565327820741396	0.34463941758940375	0.1277194313791293	0.870840376053917	0.7170541797203348	0.10143652199092346	1.036618719731076	1.1345180980005838	0.12665015458573745	0.8334459666917587	1.1812032114210482	0.06758556748283336	0.9108995654159581	1.1826043670355564	0.09849821868354809	1.0597303258560693	1.1710832863219751	0.38120455680717086	0.49053590181453	-0.19780697848905646	0.399350235548831	0.41729508105058216	-0.44821302046116274	0.3513406772562493	0.3803360482827868	-0.2939898849806894	0.5189043975045368	0.5042015883129969	-0.0805566285721718	0.5218931160838473	0.5231267526405693	0.19295238745497045	0.33078126040993444	0.46873130682525316	0.3661667449913904	0.21579105293563683	0.49367485288376206	0.43126629403783256	0.21559273410241064	0.5127911418748997	0.4436554043564721	0.23759970759320706	0.4898742809306932	0.4373398120487106	0.20418316325392058	0.510909956038249	-0.15306452725296676	0.13226612675867405	0.5302830024162777	0.0995040273427969	0.19588876231184169	0.4940572195146022	0.3384709501816688	0.24425195245026782	0.4477889121788684	0.4066631383854545	0.24642430091332246	0.4766192294571218	0.44013671613837896	0.2336835212493744	0.49136696639166566	0.4397914132535551
174	3.48	0.37925827839610976	0.6213989045218101	0.36335894308301636	0.3720164665494152	0.8765910956772541	0.7572631875449146	0.3192508390817271	1.023642570470489	1.151293903571412	0.29219636328216064	0.908367002366298	1.2348671010377281	0.36929101512182305	0.9301919338966634	1.2407450170069911	0.2759976657310181	1.0884783152972524	1.1915693105633727	0.15394926357497893	0.6568128716470063	0.34431162493976103	0.12482092374248699	0.856001813773888	0.7105777933053435	0.10144606020302034	1.035470045818744	1.1379823914931895	0.12645734147996826	0.8329889064589837	1.1810408387394205	0.06738182456745177	0.913220173744754	1.1868417949349668	0.09838445691428511	1.0594955875321461	1.1711152133868485	0.38123898396358125	0.49041879347710915	-0.1977979449423785	0.3989529927120245	0.41855556290046747	-0.4415691354697351	0.35138914195548615	0.38045543829596074	-0.2940995759881817	0.5221676443996689	0.49053613354899406	-0.07850917567775176	0.521081968690274	0.522828921487927	0.19291348811191036	0.33071036013596805	0.46890553838514293	0.36617076100970397	0.2155663873153559	0.4937834357091208	0.43102571039036497	0.21551090448740073	0.512993543567057	0.44325396543103684	0.23760446615035297	0.49006561409019167	0.4371768720702172	0.20915964723186756	0.4971175237859096	-0.15410237114296618	0.13227941767277238	0.5302557423122907	0.09943226852862617	0.19492564267261953	0.49330270030542467	0.338442426267915	0.23971451208132563	0.4600352226663455	0.4068459747550029	0.2458121807124108	0.4753436199950567	0.4363141724374111	0.23387750892484183	0.49148793219426545	0.4396532126705497
175	3.5	0.3795093618006647	0.6235971213144592	0.3674400507824037	0.3719099945708961	0.876447436849185	0.7572073982109008	0.31922340580003683	1.0236290945987305	1.151251023402643	0.29242483354081067	0.9092442631711211	1.2358654427391336	0.36724928217552805	0.9201680728541437	1.2380979416234437	0.2786851572824504	1.1003878696907008	1.1948040998241056	0.15411239144277722	0.6567732362931047	0.34430709225371703	0.12786339045747375	0.8713918421342502	0.7129434738435203	0.10143985507500461	1.0355193315315323	1.1380640432010296	0.12643248724901637	0.8324274982811491	1.181038247417277	0.06743182212567143	0.911806920244033	1.186644472151985	0.09840677209955169	1.058835792911686	1.171521901164068	0.38147426384998173	0.4900204343866488	-0.2012418071675278	0.4024726510037336	0.40593975856424924	-0.4381364006374166	0.3549552283597184	0.36889876626801715	-0.2915459162541835	0.5222188309118485	0.49046806143891775	-0.07847883138400362	0.5218486688257151	0.5215745542069554	0.18947920899515885	0.3267327409907129	0.48157028320357015	0.3663101506973201	0.21546453518289807	0.49164858844271564	0.42713091166517636	0.2153942693980189	0.5111192792625634	0.43626635922913526	0.23753994753086907	0.4903712457940372	0.43714406776788617	0.20941192424119015	0.4971473108929165	-0.15429673269575586	0.13317428069113701	0.5291022585064001	0.09574193331299787	0.19575131689161454	0.4921381321691781	0.33504067120522335	0.2395969520465072	0.459990524268267	0.4067585172118354	0.24575241645245716	0.47563560490380946	0.4362110808100945	0.23233629648671236	0.5160082052826197	0.44108223619448256
176	3.52	0.3794422656212732	0.6236704856573807	0.36747453626188437	0.37196704274183523	0.8768619511424826	0.7531247895507007	0.3192619926010884	1.0236965459039877	1.151271093198486	0.2925964959493807	0.9102185921226127	1.236867964666304	0.3695721480987998	0.9316441258903229	1.2415265830621662	0.275761132419903	1.0879943713958156	1.1911874772156437	0.15423811689358335	0.6567943511172356	0.3405492692381548	0.12783403292834428	0.8713821058903873	0.7128859314671789	0.10139461807141145	1.0355633939695474	1.1382564553674148	0.12675996412417787	0.8340439472481262	1.181335745591565	0.06806628498351293	0.9155091011436431	1.1872782879396828	0.09850254641491739	1.0598407771481966	1.1709718761215464	0.382084959849108	0.48881412472646696	-0.20466361946543316	0.4025382684891019	0.40583527462723573	-0.43788653735848826	0.3590294557562336	0.36910120513467903	-0.2912727154154649	0.52230435138223	0.4905904550416675	-0.07836842445664317	0.5221817364651634	0.5237353654989373	0.1930278123040398	0.32676126619726803	0.4817352512399998	0.3662814935196396	0.2155144764029208	0.4915883172562352	0.42709671677037264	0.21542674886818958	0.5112402609006416	0.43613936560134287	0.23768022370453	0.49080129460675886	0.4369505895872291	0.21368667736137367	0.4843544131155432	-0.15243784253373743	0.13407557030651054	0.5280070570282788	0.09188979002095114	0.19573082397722946	0.4923139560249977	0.3349624962777983	0.23859362765813882	0.4614862680405639	0.41057504175669784	0.24575293041335547	0.4760329002230606	0.43620168796804176	0.23232898878040142	0.5164394792722581	0.44106036668447135
177	3.54	0.3803261481934529	0.6221971598441168	0.36375851017205657	0.36290114014196345	0.8573732664235341	0.7453760054409194	0.318765780801878	1.0217647347172973	1.1425652993219826	0.2924127444473656	0.9088531785344423	1.2356257430964601	0.3712397322746637	0.9393615016929047	1.2434137065292676	0.2760009504468171	1.0887932862375416	1.1915182985250912	0.15439676960841217	0.656725947319673	0.3403417159437975	0.12796208653001967	0.8717066757781055	0.7087336516896838	0.10144479631690058	1.0366300430418882	1.1344436524509802	0.12690480374471105	0.834016079753701	1.1814018492158986	0.06831579711120413	0.9128101213531608	1.1831883267976224	0.09860913871530406	1.0599714504148372	1.1710022577791674	0.38202235715442445	0.4890760964559831	-0.2011312291717531	0.40272620484155086	0.40546672684750185	-0.437669337982461	0.3591283191813621	0.3686395032379865	-0.2910669122848374	0.5223763473767125	0.4907127933348017	-0.07828930888795221	0.522204551283642	0.5240180620245579	0.19307095216907574	0.3268496227899555	0.48180826872361104	0.3662246452658037	0.21558045016042962	0.49129201276037304	0.4268457447924313	0.2197879943570891	0.49771955811643326	0.43547614117939615	0.23806368040812007	0.4905740716001487	0.43681656051449813	0.21440145216036224	0.4812806501519776	-0.15866520976583168	0.13769872125447333	0.5395167759506072	0.08782455795493677	0.19159480317344815	0.5059309044068849	0.33128192804587503	0.24306563853070448	0.4612495247605825	0.4072300764865742	0.24590960173712526	0.475828731208152	0.4361839572845141	0.23229255275465338	0.5151345260209044	0.4373291642575886
178	3.56	0.37922156645821314	0.6211993093207172	0.363311991022007	0.36400738048188286	0.8552250966908638	0.7408036405155581	0.31937961112610247	1.0247356410791948	1.1472132394715835	0.2922701198880888	0.9077844971475058	1.2345275428682552	0.36931934945467954	0.9304557534338401	1.240744879966296	0.27855231044445267	1.101891456446604	1.1950017888874034	0.15444249149010117	0.6566686573769077	0.34016880094537355	0.12805632829098398	0.8723504974077176	0.7047314865187521	0.10142792822970016	1.0367053511120434	1.1342934936477564	0.12406468447268	0.8191109750810197	1.1767312292124241	0.06723450357144689	0.9093296338894131	1.1820527698538157	0.09832268222364483	1.05934576224679	1.1714300213070625	0.38194169701977204	0.4890465924401352	-0.20113570202309713	0.4026058673087506	0.4056584594552169	-0.43438503275396456	0.3551879614487408	0.36810112447214616	-0.2910741260227312	0.5223991822560443	0.4906380986462685	-0.07829602952042473	0.522266388598371	0.5239433698512237	0.19309634115690286	0.32678591807472646	0.48194185522257	0.3662424979379167	0.2194978951474937	0.49295430016183595	0.427336838758919	0.21555393545869453	0.5111364415414752	0.43595324982895867	0.23811549190859846	0.4912687753665118	0.43667440052472617	0.21440590102735554	0.4812036085701569	-0.1587295287129842	0.14176657018938454	0.5396707872593505	0.08460910366982415	0.19588698897915668	0.49260098676284786	0.33119426212222136	0.24186151056358438	0.4625111218950494	0.4109177192052863	0.24570012212529396	0.4757545714928462	0.4361943237841844	0.2324962994459956	0.5165265563593773	0.4410150768604148
